<?xml version="1.0" encoding="UTF-8"?>
<svg version="1.1" xmlns="http://www.w3.org/2000/svg" width="354" height="354">
<path d="M0 0 C-36.1319138 95.83104681 -36.1319138 95.83104681 -53.51953125 104.21484375 C-57.94600965 106.07967198 -62.18690672 107.58147015 -67 108 C-68.175625 108.103125 -69.35125 108.20625 -70.5625 108.3125 C-80.13073849 108.14721373 -89.01570252 104.40088361 -96 98 C-96.886875 97.195625 -97.77375 96.39125 -98.6875 95.5625 C-106.44776141 86.96329141 -110.84131106 77.45423584 -110.31640625 65.65234375 C-109.09280571 55.39524786 -104.77351811 45.93300873 -96.9375 39.0625 C-78.23937143 25.34688885 -55.51216636 18.04772782 -34 10 C-32.53558591 9.45075849 -31.0712301 8.90136156 -29.60693359 8.35180664 C-26.95005425 7.35480186 -24.29271714 6.35905666 -21.63500977 5.36425781 C-16.71516253 3.51778684 -11.80247426 1.65280126 -6.890625 -0.21484375 C-3.90527887 -1.02572831 -2.85404555 -0.86134574 0 0 Z " fill="#FBFBFC" transform="translate(168,117)"/>
<path d="M0 0 C5.9976622 0.69125598 11.46652116 2.74830228 17.125 4.75 C18.67368774 5.29297729 18.67368774 5.29297729 20.25366211 5.84692383 C26.34435556 8.00147119 32.33980615 10.28572131 38.265625 12.86328125 C41.40777877 14.16951946 44.59421595 15.27005581 47.8125 16.375 C54.69212108 18.80089259 61.23162905 21.77356493 67.78955078 24.94628906 C70.30462739 26.14521447 72.83659252 27.30365952 75.37109375 28.4609375 C77.24747789 29.32794742 79.12378043 30.19513399 81 31.0625 C81.88437744 31.46170654 82.76875488 31.86091309 83.67993164 32.2722168 C94.23309427 37.20143696 102.95179636 44.94258171 107.171875 56.09765625 C110.16645195 67.27081835 109.70604839 77.82730205 104.11328125 88.09765625 C103.74589844 88.72542969 103.37851562 89.35320312 103 90 C102.66355469 90.59683594 102.32710938 91.19367188 101.98046875 91.80859375 C97.33891267 99.1727587 89.11357857 104.38244984 81.03515625 107.33984375 C72.15690383 109.27089222 60.99350601 109.80470942 52.875 105.25390625 C51.946875 104.63322266 51.946875 104.63322266 51 104 C50.319375 103.57589844 49.63875 103.15179688 48.9375 102.71484375 C25.37707007 86.69553628 16.72124336 47.21629212 7.25 21.8125 C6.887854 20.84260132 6.52570801 19.87270264 6.15258789 18.87341309 C5.12334526 16.11123326 4.09951635 13.3471227 3.078125 10.58203125 C2.7662323 9.74378311 2.4543396 8.90553497 2.13299561 8.04188538 C0 2.23250741 0 2.23250741 0 0 Z " fill="#FCFBFC" transform="translate(187,116)"/>
<path d="M0 0 C6.98390709 2.99310304 13.59871533 9.19743065 17 16 C17.64066406 15.79503906 18.28132813 15.59007813 18.94140625 15.37890625 C30.6853036 11.72097101 42.08699367 10.48468666 54 14 C55.66401076 14.38661475 57.33077428 14.7615605 59 15.125 C59.763125 15.29257813 60.52625 15.46015625 61.3125 15.6328125 C61.869375 15.75398438 62.42625 15.87515625 63 16 C63.74443359 15.00419922 63.74443359 15.00419922 64.50390625 13.98828125 C69.50212637 7.49154353 73.57081529 2.37457457 81.625 -0.125 C85 0 85 0 88 2.1875 C90 5 90 5 90.0625 7.0625 C87.74753494 11.28390688 83.82520615 14.18142705 80 17 C79.34 17 78.68 17 78 17 C76.34522002 19.97860396 75.08382037 22.56336468 75 26 C76.90404869 28.08162296 76.90404869 28.08162296 78.46484375 29.44140625 C85.58911604 36.67444605 89.05859225 46.85224104 89.0703125 56.83984375 C89.05240729 58.22664497 89.03085083 59.61342637 89 61 C86.25603463 60.0517845 83.51220156 59.10318952 80.76855469 58.15405273 C78.41021552 57.33864862 76.05148694 56.52436995 73.69238281 55.71118164 C68.12587757 53.78934004 62.56634774 51.85445897 57.03125 49.84375 C56.13374023 49.52027588 55.23623047 49.19680176 54.31152344 48.86352539 C52.64526626 48.26115087 50.98167027 47.65134583 49.32128906 47.03295898 C48.57073242 46.76298096 47.82017578 46.49300293 47.046875 46.21484375 C46.08539551 45.86087524 46.08539551 45.86087524 45.10449219 45.49975586 C38.57772395 43.94983769 33.43021617 45.99479241 27.3671875 48.24609375 C25.99580124 48.74194725 25.99580124 48.74194725 24.59671021 49.24781799 C21.68612743 50.30209437 18.78049657 51.36929565 15.875 52.4375 C12.96146098 53.49948233 10.04696791 54.55878486 7.13186646 55.61647034 C5.32107249 56.27447296 3.51135415 56.935445 1.70285034 57.59971619 C0.88164703 57.89995193 0.06044373 58.20018768 -0.78564453 58.50952148 C-1.50479034 58.77377426 -2.22393616 59.03802704 -2.96487427 59.31028748 C-4.95974296 59.98635672 -6.95004619 60.51974415 -9 61 C-11.26912146 56.46175708 -8.49983197 49.76973997 -7.18359375 45.109375 C-4.87160783 38.18309081 -1.67201524 32.45802834 3.67578125 27.421875 C5.2380047 26.04849173 5.2380047 26.04849173 5.125 23.75 C2.92914196 18.38234702 -1.51575821 14.86355886 -6.4375 12 C-9 10 -9 10 -9.5625 6.4375 C-9 3 -9 3 -7.875 1.0625 C-4.96736406 -0.58516036 -3.31799847 -0.50082996 0 0 Z " fill="#F9F8F9" transform="translate(137,56)"/>
<path d="M0 0 C28.38 0 56.76 0 86 0 C85.23304419 3.83477906 84.73063357 5.90360673 83.00390625 9.171875 C82.61009766 9.91824219 82.21628906 10.66460937 81.81054688 11.43359375 C81.39869141 12.19800781 80.98683594 12.96242187 80.5625 13.75 C80.15451172 14.52988281 79.74652344 15.30976563 79.32617188 16.11328125 C76.25671495 21.87164252 76.25671495 21.87164252 74 23 C72.04522051 23.10665278 70.08679865 23.14884637 68.12915039 23.16113281 C66.28197166 23.17554413 66.28197166 23.17554413 64.3974762 23.19024658 C63.04753809 23.19509384 61.69759784 23.19937285 60.34765625 23.203125 C58.96764625 23.20887615 57.58763629 23.21463388 56.20762634 23.22039795 C53.31329984 23.23090643 50.4190011 23.23675029 47.5246582 23.24023438 C43.81433119 23.24572317 40.10437041 23.26975956 36.39415836 23.29820633 C33.54344099 23.31682018 30.69281213 23.32203759 27.84203911 23.32357025 C26.47407463 23.32659946 25.1061118 23.3346371 23.73820686 23.34775543 C21.82562629 23.36479001 19.91289492 23.36109462 18.00024414 23.35644531 C16.3671505 23.36191376 16.3671505 23.36191376 14.70106506 23.36749268 C12 23 12 23 10.19790649 21.59356689 C7.83723645 18.45318353 6.12992695 14.97253187 4.3125 11.5 C3.68891602 10.34177734 3.68891602 10.34177734 3.05273438 9.16015625 C2.66021484 8.41636719 2.26769531 7.67257813 1.86328125 6.90625 C1.50532471 6.22884766 1.14736816 5.55144531 0.77856445 4.85351562 C0 3 0 3 0 0 Z " fill="#F7F6F8" transform="translate(134,221)"/>
<path d="M0 0 C0.9047406 -0.025746 1.8094812 -0.051492 2.74163818 -0.07801819 C6.89337787 -0.16201452 11.04493137 -0.22806271 15.19726562 -0.27441406 C17.38766399 -0.30605315 19.57789111 -0.35380628 21.76757812 -0.41796875 C24.92155518 -0.50917784 28.07244269 -0.54801918 31.22753906 -0.57592773 C32.69341461 -0.63315758 32.69341461 -0.63315758 34.18890381 -0.69154358 C36.92946103 -0.68370611 39.13065156 -0.59328028 41.74316406 0.24047852 C44.10971144 2.62507556 45.41270535 5.18245603 46.74316406 8.24047852 C47.33742187 9.41352539 47.93167969 10.58657227 48.54394531 11.79516602 C49.29224609 13.4387207 49.29224609 13.4387207 50.05566406 15.11547852 C50.56742187 16.22665039 51.07917969 17.33782227 51.60644531 18.48266602 C52.74316406 21.24047852 52.74316406 21.24047852 52.74316406 23.24047852 C30.30316406 23.24047852 7.86316406 23.24047852 -15.25683594 23.24047852 C-14.48364778 19.37453774 -13.98757169 17.3455241 -12.22558594 14.06860352 C-11.82726562 13.32223633 -11.42894531 12.57586914 -11.01855469 11.80688477 C-10.6021875 11.0424707 -10.18582031 10.27805664 -9.75683594 9.49047852 C-9.34046875 8.7105957 -8.92410156 7.93071289 -8.49511719 7.12719727 C-4.73471502 0.12968515 -4.73471502 0.12968515 0 0 Z " fill="#F7F6F8" transform="translate(158.2568359375,185.759521484375)"/>
<path d="M0 0 C18.15 0 36.3 0 55 0 C55.495 0.99 55.495 0.99 56 2 C43.7568914 18.52819661 43.7568914 18.52819661 35 21 C34.95101562 22.27617187 34.90203125 23.55234375 34.8515625 24.8671875 C34.77653809 26.53648072 34.70099012 28.20575046 34.625 29.875 C34.57859375 31.13763672 34.57859375 31.13763672 34.53125 32.42578125 C34.49257812 33.23144531 34.45390625 34.03710938 34.4140625 34.8671875 C34.3826416 35.61081543 34.3512207 36.35444336 34.31884766 37.12060547 C34 39 34 39 32 41 C26.31651376 41.5412844 26.31651376 41.5412844 24 41 C21.1122662 38.50075057 20.99666055 36.95565212 20.70703125 33.109375 C20.72685055 31.65595991 20.76245155 30.20268833 20.8125 28.75 C20.83280273 27.63238281 20.83280273 27.63238281 20.85351562 26.4921875 C20.88872796 24.66114584 20.94253149 22.83047831 21 21 C20.06800781 20.70996094 19.13601562 20.41992188 18.17578125 20.12109375 C10.22336658 17.31378378 4.68451911 9.72488743 0 3 C0 2.01 0 1.02 0 0 Z " fill="#F6F5F7" transform="translate(149,256)"/>
<path d="M0 0 C0.66 0 1.32 0 2 0 C2.30550781 0.83015625 2.61101562 1.6603125 2.92578125 2.515625 C5.49583299 9.43666574 8.11941412 16.33091693 10.84765625 23.19140625 C11.0958461 23.8169339 11.34403595 24.44246155 11.5997467 25.08694458 C12.60963024 27.63178997 13.6195573 30.17654764 14.64004517 32.71716309 C15.36600026 34.52452164 16.08546542 36.33448281 16.8046875 38.14453125 C17.43866455 39.72778198 17.43866455 39.72778198 18.08544922 41.34301758 C19 44 19 44 19 47 C7.12 47 -4.76 47 -17 47 C-13.62442586 35.74808621 -13.62442586 35.74808621 -11.9140625 31.23046875 C-11.54273193 30.24498047 -11.17140137 29.25949219 -10.78881836 28.24414062 C-10.4047583 27.23544922 -10.02069824 26.22675781 -9.625 25.1875 C-9.03054077 23.61452148 -9.03054077 23.61452148 -8.42407227 22.00976562 C-5.64386294 14.66259758 -2.84586099 7.32201421 0 0 Z " fill="#F7F5F8" transform="translate(176,127)"/>
<path d="M0 0 C0.99 0.33 1.98 0.66 3 1 C-0.49359465 4.59634744 -4.11098131 7.83451967 -8 11 C-6.63629701 8.00779732 -5.05091917 5.70973471 -2.875 3.25 C-2.33617187 2.63640625 -1.79734375 2.0228125 -1.2421875 1.390625 C-0.62730469 0.70226563 -0.62730469 0.70226563 0 0 Z " fill="#E0DBE5" transform="translate(210,60)"/>
</svg>
